<?xml version="1.0" encoding="utf-8"?>
<!-- Generator: Adobe Illustrator 23.0.0, SVG Export Plug-In . SVG Version: 6.00 Build 0)  -->
<svg version="1.1" id="图层_1" xmlns="http://www.w3.org/2000/svg" xmlns:xlink="http://www.w3.org/1999/xlink" x="0px" y="0px"
	 viewBox="0 0 630.34 567.15" style="enable-background:new 0 0 630.34 567.15;" xml:space="preserve">
<style type="text/css">
	.st0{fill:#CCDDFF;}
	.st1{fill:#FFFFFF;}
	.st2{fill:none;}
	.st3{fill:#FAA760;}
	.st4{fill:#CEDEFF;}
	.st5{fill:#81E6FF;}
	.st6{fill:#00384D;}
</style>
<g>
	<circle class="st0" cx="311.95" cy="331.29" r="201.21"/>
	<path class="st0" d="M258.8,231.72l-86.43-49.9c-5.22-3.01-7-9.68-3.99-14.9l0,0c3.01-5.22,9.68-7,14.9-3.99l86.43,49.9
		c5.22,3.01,7,9.68,3.99,14.9v0C270.69,232.95,264.02,234.73,258.8,231.72z"/>
	<path class="st1" d="M161.74,213.67l-91.85-53.03c-7.8-4.5-10.5-14.57-5.99-22.37l0,0c4.5-7.8,14.57-10.5,22.37-5.99l91.85,53.03
		c7.8,4.5,10.5,14.57,5.99,22.37l0,0C179.61,215.48,169.54,218.17,161.74,213.67z"/>
	<path class="st0" d="M229.21,289.74l-91.85-53.03c-7.8-4.5-10.5-14.57-5.99-22.37l0,0c4.5-7.8,14.57-10.5,22.37-5.99l91.85,53.03
		c7.8,4.5,10.5,14.57,5.99,22.37l0,0C247.08,291.55,237.01,294.24,229.21,289.74z"/>
	<path class="st1" d="M124.75,266.7l-90.85-53.03c-7.8-4.5-10.5-14.57-5.99-22.37l0,0c4.5-7.8,13.57-10.5,21.37-5.99l91.85,53.03
		c7.8,4.5,10.5,14.57,5.99,22.37l0,0C142.61,268.51,132.55,271.21,124.75,266.7z"/>
	<path class="st0" d="M186.14,340.01l-91.85-53.03c-7.8-4.5-10.5-14.57-5.99-22.37l0,0c4.5-7.8,14.57-10.5,22.37-5.99l91.85,53.03
		c7.8,4.5,10.5,14.57,5.99,22.37l0,0C204,341.82,193.94,344.51,186.14,340.01z"/>
	<path class="st0" d="M515.8,361.72l-86.43-49.9c-5.22-3.01-7-9.68-3.99-14.9l0,0c3.01-5.22,9.68-7,14.9-3.99l86.43,49.9
		c5.22,3.01,7,9.68,3.99,14.9l0,0C527.69,362.95,521.02,364.73,515.8,361.72z"/>
	<path class="st1" d="M582.74,437.67l-91.85-53.03c-7.8-4.5-10.5-14.57-5.99-22.37v0c4.5-7.8,14.57-10.5,22.37-5.99l91.85,53.03
		c7.8,4.5,35.5,14.57,30.99,22.37l0,0C625.61,439.48,590.54,442.17,582.74,437.67z"/>
	<path class="st0" d="M499.21,426.74l-91.85-53.03c-7.8-4.5-10.5-14.57-5.99-22.37l0,0c4.5-7.8,14.57-10.5,22.37-5.99l91.85,53.03
		c7.8,4.5,10.5,14.57,5.99,22.37v0C517.08,428.55,507.01,431.24,499.21,426.74z"/>
	<path class="st1" d="M564.75,502.7l-91.85-53.03c-7.8-4.5-10.5-14.57-5.99-22.37l0,0c4.5-7.8,14.57-10.5,22.37-5.99l91.85,53.03
		c7.8,4.5,10.5,14.57,5.99,22.37v0C582.61,504.51,572.55,507.21,564.75,502.7z"/>
	<path class="st0" d="M466.14,483.01l-91.85-53.03c-7.8-4.5-10.5-14.57-5.99-22.37v0c4.5-7.8,14.57-10.5,22.37-5.99l91.85,53.03
		c7.8,4.5,10.5,14.57,5.99,22.37v0C484,484.82,473.94,487.51,466.14,483.01z"/>
</g>
<g>
	<g>
		<g>
			<ellipse class="st2" cx="328.34" cy="217.71" rx="29.14" ry="27.6"/>
		</g>
	</g>
</g>
<g>
	<path class="st3" d="M232.46,59.49c-8.66,0-15.7-7.04-15.7-15.7s7.04-15.7,15.7-15.7c8.66,0,15.7,7.04,15.7,15.7
		S241.11,59.49,232.46,59.49z M232.46,35.34c-4.66,0-8.45,3.79-8.45,8.45s3.79,8.45,8.45,8.45c4.66,0,8.45-3.79,8.45-8.45
		S237.12,35.34,232.46,35.34z"/>
</g>
<g>
	<circle class="st4" cx="110.99" cy="197.7" r="14.46"/>
</g>
<g>
	<path class="st4" d="M40.17,265.42L40.17,265.42c0-15.47-12.54-28.01-28.01-28.01v0c15.47,0,28.01-12.54,28.01-28.01h0
		c0,15.47,12.54,28.01,28.01,28.01v0C52.71,237.41,40.17,249.95,40.17,265.42z"/>
</g>
<g>
	<path class="st4" d="M573.89,300.99L573.89,300.99c0-24.45-19.82-44.27-44.27-44.27v0c24.45,0,44.27-19.82,44.27-44.27h0
		c0,24.45,19.82,44.27,44.27,44.27v0C593.71,256.73,573.89,276.55,573.89,300.99z"/>
</g>
<g>
	<path class="st5" d="M418.61,84.44L418.61,84.44c0-9.69-7.85-17.54-17.54-17.54v0c9.69,0,17.54-7.85,17.54-17.54h0
		c0,9.69,7.85,17.54,17.54,17.54v0C426.47,66.89,418.61,74.75,418.61,84.44z"/>
</g>
<path class="st5" d="M110.84,108.55L110.84,108.55c0-16.47-13.35-29.81-29.81-29.81v0c16.47,0,29.81-13.35,29.81-29.81h0
	c0,16.47,13.35,29.81,29.81,29.81v0C124.19,78.73,110.84,92.08,110.84,108.55z"/>
<g>
	<circle class="st5" cx="493.06" cy="154.18" r="10.84"/>
</g>
<g>
	<circle class="st0" cx="543.62" cy="433.27" r="14.46"/>
</g>
<g>
	<g>
		<path class="st1" d="M451.41,247.01c7.55,0,13.67-6.12,13.67-13.67s-6.12-13.67-13.67-13.67c-2.5,0-4.84,0.68-6.85,1.86
			c-0.22-7.35-6.24-13.25-13.65-13.25c-7.06,0-12.86,5.35-13.59,12.21c-1.45-0.52-3.01-0.82-4.64-0.82
			c-7.55,0-13.67,6.12-13.67,13.67s6.12,13.67,13.67,13.67H451.41z"/>
	</g>
	<g>
		<path class="st1" d="M396.84,258.7c7.55,0,13.67-6.12,13.67-13.67c0-7.55-6.12-13.67-13.67-13.67c-2.5,0-4.84,0.68-6.85,1.86
			c-0.22-7.35-6.24-13.25-13.65-13.25c-7.06,0-12.86,5.35-13.59,12.21c-1.45-0.52-3.01-0.82-4.64-0.82
			c-7.55,0-13.67,6.12-13.67,13.67c0,7.55,6.12,13.67,13.67,13.67H396.84z"/>
	</g>
	<g>
		<path class="st3" d="M384.06,317.6c0,0,60.31-31.59,74.67-11.49c0,0-5.75,9.92-38.95,32.9L384.06,317.6z"/>
	</g>
	<g>
		<polygon class="st3" points="225.25,355.48 255.25,380.35 238.02,391.84 209.3,365.99 		"/>
	</g>
	<path class="st1" d="M259.22,278.28c0,0,93.11,32.58,101.9,40.14l-44.26,25.73l-79.26-50.44L259.22,278.28z"/>
	<path class="st1" d="M374.78,315.13l44.52,21.89c0,0-132.82,93.41-172.22,71.52l-12.55-11.89L374.78,315.13z"/>
	<path class="st6" d="M453.96,288.62c-9.05-4.96-20.1-4-28.71-2.61c-19.58,3.17-38.05,11.18-54.3,19.11
		c-0.22,0.09-0.43,0.19-0.63,0.31c-1.84,0.9-3.68,1.8-5.46,2.7c-1.53,0.77-3.04,1.53-4.55,2.3
		c-32.44-17.27-108.48-41.79-111.75-42.84c-1.81-0.59-3.79-0.23-5.28,0.93l-25.85,20.1c-1.47,1.14-2.29,2.93-2.21,4.79
		c0.08,1.86,1.06,3.56,2.63,4.57l75.79,48.72c-17.01,9.92-31.46,18.85-42.55,25.91c-0.2-0.22-0.41-0.43-0.65-0.62l-31.59-25.85
		c-2.01-1.64-4.87-1.73-6.98-0.23l-20.1,14.36c-1.4,1-2.28,2.58-2.39,4.29c-0.11,1.72,0.55,3.39,1.8,4.57l45.95,43.08
		c0.23,0.22,0.48,0.41,0.74,0.59c0.54,0.36,9.36,6.09,22.77,6.09c6.69,0,14.51-1.42,23.02-5.64l2.12-0.89
		c7.14-3.01,14.76-6.34,23.31-10.18c13.73-6.17,27.08-12.45,39.69-18.67c17-8.38,31.82-16.21,45.31-23.94
		c11.45-6.56,26.38-15.47,40.29-26.14l0.56-0.43c9.86-7.56,21.03-16.13,26.02-29.22C462.3,300.3,463.16,293.68,453.96,288.62z
		 M304.48,340.03l-73.6-47.31l17.04-13.25c13.27,4.34,69.06,22.89,99.71,37.46c-15.36,8-29.73,15.89-42.84,23.36
		C304.68,340.2,304.59,340.1,304.48,340.03z M204.14,365.57l10.83-7.74L241,379.12c-6.39,4.18-10.85,7.19-13.08,8.72L204.14,365.57z
		 M388.37,349.62c-13.28,7.61-27.9,15.33-44.68,23.61c-12.49,6.16-25.72,12.38-39.32,18.49c-8.46,3.81-16,7.1-23.08,10.08
		l-2.24,0.94c-0.12,0.05-0.24,0.1-0.36,0.16c-18.13,9.07-31.82,1.92-34.13,0.56l-8.07-7.56c13.83-9.36,65.74-43.62,133.5-77.5
		c0.99-0.5,2.02-1,3.03-1.5l35.99,20.24C401.63,341.91,394.49,346.11,388.37,349.62z M449.59,300.68c-0.13,0.75-0.5,1.43-0.88,2.09
		c-5.06,8.66-12.9,15.12-20.76,21.14l-0.56,0.43c-2.54,1.94-5.11,3.81-7.7,5.63l-33.96-19.1c12.94-5.87,26.95-11.18,41.35-13.51
		c4.12-0.67,8.32-1.18,12.5-0.92C442.18,296.6,450.33,296.28,449.59,300.68z"/>
</g>
</svg>
